<svg xmlns="http://www.w3.org/2000/svg"  viewBox="0 0 30 30" width="30px" height="30px"><path fill="#f78f8f" d="M27.844,21.117c-0.278,1.4-1.461,2.467-2.922,2.667c-2.296,0.333-5.546,0.717-9.86,0.717 c-4.244,0-7.65-0.383-10.015-0.717c-1.461-0.2-2.644-1.267-2.922-2.667c-0.278-1.533-0.604-3.3-0.604-6.1S1.752,10.533,2.031,9 c0.278-1.4,1.461-2.467,2.922-2.667C7.249,6,10.654,5.583,14.968,5.583s7.494,0.417,9.86,0.75C26.289,6.533,27.472,7.6,27.75,9 c0.278,1.533,0.673,3.217,0.673,6.017C28.354,17.817,28.123,19.583,27.844,21.117z"/><path fill="#c74343" d="M15.015,6c4.267,0,7.954,0.393,10.301,0.724c1.048,0.143,1.883,0.895,2.074,1.854 c0.262,1.443,0.61,3.679,0.61,6.397c-0.077,3.108-0.416,5.373-0.607,6.43c-0.194,0.976-1.029,1.727-2.085,1.872 C23.811,23.494,19.811,24,15.015,24c-4.492,0-8.379-0.453-10.301-0.724c-1.048-0.143-1.883-0.895-2.074-1.854 C2.394,20.063,2.1,17.846,2.1,15s0.294-5.063,0.537-6.405c0.194-0.976,1.029-1.727,2.085-1.872C6.22,6.506,10.22,6,15.015,6 M15.015,5c-4.314,0-8.14,0.4-10.436,0.733C3.118,5.933,1.935,7,1.657,8.4C1.378,9.933,1.1,12.2,1.1,15s0.278,5.067,0.557,6.6 c0.278,1.4,1.461,2.467,2.922,2.667C6.944,24.6,10.771,25,15.015,25c4.314,0,8.14-0.4,10.436-0.733 c1.461-0.2,2.644-1.267,2.922-2.667C28.652,20.067,28.93,17.8,29,15c0-2.8-0.348-5.067-0.626-6.6 c-0.278-1.4-1.461-2.467-2.922-2.667C23.086,5.4,19.329,5,15.015,5L15.015,5z"/><path fill="#fff" d="M13 19L13 11 20 15z"/></svg>